<?xml version="1.0" encoding="UTF-8" standalone="no"?>
<!DOCTYPE svg PUBLIC "-//W3C//DTD SVG 1.1//EN" "http://www.w3.org/Graphics/SVG/1.1/DTD/svg11.dtd">
<!-- Created with matplotlib (http://matplotlib.sourceforge.net/) -->
<svg width="520pt" height="285pt" viewBox="0 0 520 285" xmlns="http://www.w3.org/2000/svg" xmlns:xlink="http://www.w3.org/1999/xlink" version="1.1" id="svg1">
<filter id="colorAdd"><feComposite in="SourceGraphic" in2="BackgroundImage" operator="arithmetic" k2="1" k3="1"/></filter>
<g id="figure1">
<g id="patch1">
<path style="fill: #ffffff; stroke: #ffffff; stroke-width: 1.000000; stroke-linejoin: round; stroke-linecap: square;  opacity: 1.000000" d="M0.000000 285.617188L520.093750 285.617188L520.093750 0.000000 L0.000000 0.000000z"/>
</g>
<g id="axes1">
<g id="patch2">
<path style="fill: #ffffff; opacity: 1.000000" d="M62.893750 245.739062L509.293750 245.739062L509.293750 15.339063 L62.893750 15.339063z"/>
</g>
<g id="line2d1">
<defs>
  <clipPath id="p320c4de3f9fe90afa576b2c8813c2397">
<rect x="62.893750" y="15.339063" width="446.400000" height="230.400000"/>
  </clipPath>
</defs><path style="fill: none; stroke: #0000ff; stroke-width: 1.000000; stroke-linejoin: round; stroke-linecap: square;  opacity: 1.000000" clip-path="url(#p320c4de3f9fe90afa576b2c8813c2397)" d="M62.893750 15.339063L67.402841 16.658849L71.911932 20.587968 L76.421023 27.036391L80.930114 35.856367L85.439205 46.845803 L89.948295 59.752899L94.457386 74.281915L98.966477 90.099949 L103.475568 106.844563L107.984659 124.132088L112.493750 141.566415 L117.002841 158.748073L121.511932 175.283380L126.021023 190.793462 L130.530114 204.922937L135.039205 217.348058L139.548295 227.784128 L144.057386 235.992026L148.566477 241.783685L153.075568 245.026401 L157.584659 245.645873L162.093750 243.627908L166.602841 239.018743 L171.111932 231.923988L175.621023 222.506204L180.130114 210.981182 L184.639205 197.612992L189.148295 182.707941L193.657386 166.607546 L198.166477 149.680716L202.675568 132.315294L207.184659 114.909173 L211.693750 97.861179L216.202841 81.561932L220.711932 66.384896 L225.221023 52.677821L229.730114 40.754778L234.239205 30.888958 L238.748295 23.306417L243.257386 18.180893L247.766477 15.629826 L252.275568 15.711670L256.784659 18.424549L261.293750 23.706303 L265.802841 31.435911L270.311932 41.436266L274.821023 53.478229 L279.330114 67.285884L283.839205 82.542856L288.348295 98.899563 L292.857386 115.981224L297.366477 133.396449L301.875568 150.746202 L306.384659 167.632950L310.893750 183.669768L315.402841 198.489204 L319.911932 211.751701L324.421023 223.153377L328.930114 232.432984 L333.439205 239.377901L337.948295 243.828998L342.457386 245.684288 L346.966477 244.901260L351.475568 241.497857L355.984659 235.552059 L360.493750 227.200103L365.002841 216.633356L369.511932 204.093935 L374.021023 189.869154L378.530114 174.284946L383.039205 157.698390 L387.548295 140.489533L392.057386 123.052682L396.566477 105.787365 L401.075568 89.089184L405.584659 73.340741L410.093750 58.902882 L414.602841 46.106419L419.111932 35.244557L423.621023 26.566175 L428.130114 20.270118L432.639205 16.500649L437.148295 15.344138 L441.657386 16.827083L446.166477 20.915505L450.675568 27.515727 L455.184659 36.476519L459.693750 47.592561L464.202841 60.609153 L468.711932 75.228046L473.221023 91.114278L477.730114 107.903848 L482.239205 125.212058L486.748295 142.642326L491.257386 159.795272 L495.766477 176.277871L500.275568 191.712460L504.784659 205.745384 L509.293750 218.055110"/>
</g>
<g id="line2d2">
<path style="fill: none; stroke: #008000; stroke-width: 1.000000; stroke-linejoin: round; stroke-linecap: square;  opacity: 1.000000" clip-path="url(#p320c4de3f9fe90afa576b2c8813c2397)" d="M62.893750 15.339063L67.402841 16.594668L71.911932 20.096380 L76.421023 25.453955L80.930114 32.292557L85.439205 40.258562 L89.948295 49.024092L94.457386 58.290369L98.966477 67.789974 L103.475568 77.288126L107.984659 86.583084L112.493750 95.505789 L117.002841 103.918869L121.511932 111.715098L126.021023 118.815443 L130.530114 125.166776L135.039205 130.739366L139.548295 135.524219 L144.057386 139.530352L148.566477 142.782073L153.075568 145.316312 L157.584659 147.180061L162.093750 148.427963L166.602841 149.120069 L171.111932 149.319806L175.621023 149.092153L180.130114 148.502039 L184.639205 147.612971L189.148295 146.485883L193.657386 145.178203 L198.166477 143.743125L202.675568 142.229073L207.184659 140.679341 L211.693750 139.131896L216.202841 137.619316L220.711932 136.168861 L225.221023 134.802634L229.730114 133.537841L234.239205 132.387114 L238.748295 131.358880L243.257386 130.457781L247.766477 129.685100 L252.275568 129.039211L256.784659 128.516019L261.293750 128.109400 L265.802841 127.811607L270.311932 127.613673L274.821023 127.505765 L279.330114 127.477522L283.839205 127.518343L288.348295 127.617649 L292.857386 127.765108L297.366477 127.950813L301.875568 128.165440 L306.384659 128.400358L310.893750 128.647720L315.402841 128.900517 L319.911932 129.152610L324.421023 129.398738L328.930114 129.634507 L333.439205 129.856360L337.948295 130.061537L342.457386 130.248020 L346.966477 130.414472L351.475568 130.560172L355.984659 130.684937 L360.493750 130.789060L365.002841 130.873228L369.511932 130.938458 L374.021023 130.986025L378.530114 131.017401L383.039205 131.034195 L387.548295 131.038101L392.057386 131.030848L396.566477 131.014158 L401.075568 130.989713L405.584659 130.959124L410.093750 130.923904 L414.602841 130.885454L419.111932 130.845044L423.621023 130.803811 L428.130114 130.762745L432.639205 130.722698L437.148295 130.684376 L441.657386 130.648353L446.166477 130.615071L450.675568 130.584852 L455.184659 130.557908L459.693750 130.534351L464.202841 130.514207 L468.711932 130.497423L473.221023 130.483885L477.730114 130.473423 L482.239205 130.465827L486.748295 130.460857L491.257386 130.458248 L495.766477 130.457724L500.275568 130.459003L504.784659 130.461805 L509.293750 130.465855"/>
</g>
<g id="line2d3">
<path style="fill: none; stroke: #ff0000; stroke-width: 1.000000; stroke-linejoin: round; stroke-linecap: square;  opacity: 1.000000" clip-path="url(#p320c4de3f9fe90afa576b2c8813c2397)" d="M62.893750 15.339063L67.402841 16.535101L71.911932 19.671983 L76.421023 24.180320L80.930114 29.612465L85.439205 35.619536 L89.948295 41.932493L94.457386 48.346581L98.966477 54.708575 L103.475568 60.906337L107.984659 66.860289L112.493750 72.516477 L117.002841 77.840938L121.511932 82.815145L126.021023 87.432336 L130.530114 91.694576L135.039205 95.610406L139.548295 99.192982 L144.057386 102.458607L148.566477 105.425587L153.075568 108.113348 L157.584659 110.541754L162.093750 112.730605L166.602841 114.699259 L171.111932 116.466366L175.621023 118.049686L180.130114 119.465966 L184.639205 120.730879L189.148295 121.858993L193.657386 122.863770 L198.166477 123.757593L202.675568 124.551799L207.184659 125.256731 L211.693750 125.881794L216.202841 126.435510L220.711932 126.925587 L225.221023 127.358974L229.730114 127.741925L234.239205 128.080054 L238.748295 128.378396L243.257386 128.641454L247.766477 128.873252 L252.275568 129.077381L256.784659 129.257039L261.293750 129.415072 L265.802841 129.554010L270.311932 129.676097L274.821023 129.783326 L279.330114 129.877462L283.839205 129.960066L288.348295 130.032521 L292.857386 130.096047L297.366477 130.151723L301.875568 130.200500 L306.384659 130.243219L310.893750 130.280617L315.402841 130.313348 L319.911932 130.341983L324.421023 130.367029L328.930114 130.388927 L333.439205 130.408069L337.948295 130.424795L342.457386 130.439408 L346.966477 130.452171L351.475568 130.463314L355.984659 130.473042 L360.493750 130.481532L365.002841 130.488939L369.511932 130.495401 L374.021023 130.501037L378.530114 130.505951L383.039205 130.510235 L387.548295 130.513968L392.057386 130.517222L396.566477 130.520057 L401.075568 130.522526L405.584659 130.524677L410.093750 130.526550 L414.602841 130.528181L419.111932 130.529600L423.621023 130.530835 L428.130114 130.531910L432.639205 130.532846L437.148295 130.533660 L441.657386 130.534367L446.166477 130.534983L450.675568 130.535518 L455.184659 130.535984L459.693750 130.536388L464.202841 130.536740 L468.711932 130.537046L473.221023 130.537311L477.730114 130.537542 L482.239205 130.537743L486.748295 130.537917L491.257386 130.538068 L495.766477 130.538199L500.275568 130.538314L504.784659 130.538413 L509.293750 130.538499"/>
</g>
<g id="line2d4">
<path style="fill: none; stroke: #00bfbf; stroke-width: 1.000000; stroke-linejoin: round; stroke-linecap: square;  opacity: 1.000000" clip-path="url(#p320c4de3f9fe90afa576b2c8813c2397)" d="M62.893750 15.339063L67.402841 16.479754L71.911932 19.303911 L76.421023 23.144625L80.930114 27.559867L85.439205 32.258488 L89.948295 37.050466L94.457386 41.813469L98.966477 46.470381 L103.475568 50.974209L107.984659 55.297941L112.493750 59.427749 L117.002841 63.358427L121.511932 67.090335L126.021023 70.627364 L130.530114 73.975570L135.039205 77.142274L139.548295 80.135465 L144.057386 82.963410L148.566477 85.634396L153.075568 88.156576 L157.584659 90.537864L162.093750 92.785876L166.602841 94.907903 L171.111932 96.910889L175.621023 98.801437L180.130114 100.585806 L184.639205 102.269925L189.148295 103.859402L193.657386 105.359540 L198.166477 106.775351L202.675568 108.111568L207.184659 109.372659 L211.693750 110.562847L216.202841 111.686114L220.711932 112.746223 L225.221023 113.746724L229.730114 114.690967L234.239205 115.582116 L238.748295 116.423156L243.257386 117.216904L247.766477 117.966019 L252.275568 118.673011L256.784659 119.340248L261.293750 119.969966 L265.802841 120.564275L270.311932 121.125165L274.821023 121.654516 L279.330114 122.154101L283.839205 122.625594L288.348295 123.070575 L292.857386 123.490534L297.366477 123.886878L301.875568 124.260936 L306.384659 124.613960L310.893750 124.947133L315.402841 125.261572 L319.911932 125.558329L324.421023 125.838400L328.930114 126.102722 L333.439205 126.352181L337.948295 126.587613L342.457386 126.809806 L346.966477 127.019505L351.475568 127.217413L355.984659 127.404192 L360.493750 127.580468L365.002841 127.746832L369.511932 127.903841 L374.021023 128.052022L378.530114 128.191870L383.039205 128.323855 L387.548295 128.448418L392.057386 128.565976L396.566477 128.676925 L401.075568 128.781634L405.584659 128.880456L410.093750 128.973721 L414.602841 129.061741L419.111932 129.144812L423.621023 129.223212 L428.130114 129.297203L432.639205 129.367034L437.148295 129.432938 L441.657386 129.495136L446.166477 129.553837L450.675568 129.609237 L455.184659 129.661522L459.693750 129.710867L464.202841 129.757437 L468.711932 129.801388L473.221023 129.842868L477.730114 129.882016 L482.239205 129.918962L486.748295 129.953831L491.257386 129.986739 L495.766477 130.017797L500.275568 130.047108L504.784659 130.074771 L509.293750 130.100878"/>
</g>
<g id="matplotlib.axis1">
<g id="xtick1">
<g id="line2d5">
<path style="fill: none; stroke: #000000; stroke-width: 0.500000; stroke-linejoin: round; stroke-linecap: butt; stroke-dasharray: 1.000000,3.000000; stroke-dashoffset: 0.000000; opacity: 1.000000" clip-path="url(#p320c4de3f9fe90afa576b2c8813c2397)" d="M62.893750 245.739062L62.893750 15.339063"/>
</g>
<g id="line2d6">
<defs><path id="m30e32995789d870ad79a2e54c91cf9c6" d="M0.000000 0.000000L0.000000 -4.000000"/></defs>
<g><use style="fill: none; stroke: #000000; stroke-width: 0.500000; stroke-linejoin: round; stroke-linecap: butt;  opacity: 1.000000" xlink:href="#m30e32995789d870ad79a2e54c91cf9c6" x="62.893750" y="245.739062"/>
</g></g>
<g id="line2d7">
<defs><path id="m9281cae24120827b11d5ea8a7ad3e96b" d="M0.000000 0.000000L0.000000 4.000000"/></defs>
<g><use style="fill: none; stroke: #000000; stroke-width: 0.500000; stroke-linejoin: round; stroke-linecap: butt;  opacity: 1.000000" xlink:href="#m9281cae24120827b11d5ea8a7ad3e96b" x="62.893750" y="15.339063"/>
</g></g>
<g id="text1">
<defs>
<path id="c_7a2040fe3b94fcd41d0a72c84e93b115" d="M31.781250 -66.406250q-7.609375 0.000000 -11.453125 7.500000q-3.828125 7.484375 -3.828125 22.531250q0.000000 14.984375 3.828125 22.484375q3.843750 7.500000 11.453125 7.500000q7.671875 0.000000 11.500000 -7.500000q3.843750 -7.500000 3.843750 -22.484375q0.000000 -15.046875 -3.843750 -22.531250q-3.828125 -7.500000 -11.500000 -7.500000M31.781250 -74.218750q12.265625 0.000000 18.734375 9.703125q6.468750 9.687500 6.468750 28.140625q0.000000 18.406250 -6.468750 28.109375q-6.468750 9.687500 -18.734375 9.687500q-12.250000 0.000000 -18.718750 -9.687500q-6.468750 -9.703125 -6.468750 -28.109375q0.000000 -18.453125 6.468750 -28.140625q6.468750 -9.703125 18.718750 -9.703125"/>
</defs>
<g style="fill: #000000; opacity: 1.000000" transform="translate(59.870313,258.645312)scale(0.120000)">
<use xlink:href="#c_7a2040fe3b94fcd41d0a72c84e93b115"/>
</g>
</g>
</g>
<g id="xtick2">
<g id="line2d8">
<path style="fill: none; stroke: #000000; stroke-width: 0.500000; stroke-linejoin: round; stroke-linecap: butt; stroke-dasharray: 1.000000,3.000000; stroke-dashoffset: 0.000000; opacity: 1.000000" clip-path="url(#p320c4de3f9fe90afa576b2c8813c2397)" d="M122.413750 245.739062L122.413750 15.339063"/>
</g>
<g id="line2d9">
<g><use style="fill: none; stroke: #000000; stroke-width: 0.500000; stroke-linejoin: round; stroke-linecap: butt;  opacity: 1.000000" xlink:href="#m30e32995789d870ad79a2e54c91cf9c6" x="122.413750" y="245.739062"/>
</g></g>
<g id="line2d10">
<g><use style="fill: none; stroke: #000000; stroke-width: 0.500000; stroke-linejoin: round; stroke-linecap: butt;  opacity: 1.000000" xlink:href="#m9281cae24120827b11d5ea8a7ad3e96b" x="122.413750" y="15.339063"/>
</g></g>
<g id="text2">
<defs>
<path id="c_ed3f3ed3ebfbd18bcb9c012009a68ad1" d="M19.187500 -8.296875l34.421875 0.000000l0.000000 8.296875l-46.281250 0.000000l0.000000 -8.296875q5.609375 -5.812500 15.296875 -15.593750q9.703125 -9.796875 12.187500 -12.640625q4.734375 -5.312500 6.609375 -9.000000q1.890625 -3.687500 1.890625 -7.250000q0.000000 -5.812500 -4.078125 -9.468750q-4.078125 -3.671875 -10.625000 -3.671875q-4.640625 0.000000 -9.796875 1.609375q-5.140625 1.609375 -11.000000 4.890625l0.000000 -9.968750q5.953125 -2.390625 11.125000 -3.609375q5.187500 -1.218750 9.484375 -1.218750q11.328125 0.000000 18.062500 5.671875q6.734375 5.656250 6.734375 15.125000q0.000000 4.500000 -1.687500 8.531250q-1.671875 4.015625 -6.125000 9.484375q-1.218750 1.421875 -7.765625 8.187500q-6.531250 6.765625 -18.453125 18.921875"/>
</defs>
<g style="fill: #000000; opacity: 1.000000" transform="translate(119.632500,258.645312)scale(0.120000)">
<use xlink:href="#c_ed3f3ed3ebfbd18bcb9c012009a68ad1"/>
</g>
</g>
</g>
<g id="xtick3">
<g id="line2d11">
<path style="fill: none; stroke: #000000; stroke-width: 0.500000; stroke-linejoin: round; stroke-linecap: butt; stroke-dasharray: 1.000000,3.000000; stroke-dashoffset: 0.000000; opacity: 1.000000" clip-path="url(#p320c4de3f9fe90afa576b2c8813c2397)" d="M181.933750 245.739062L181.933750 15.339063"/>
</g>
<g id="line2d12">
<g><use style="fill: none; stroke: #000000; stroke-width: 0.500000; stroke-linejoin: round; stroke-linecap: butt;  opacity: 1.000000" xlink:href="#m30e32995789d870ad79a2e54c91cf9c6" x="181.933750" y="245.739062"/>
</g></g>
<g id="line2d13">
<g><use style="fill: none; stroke: #000000; stroke-width: 0.500000; stroke-linejoin: round; stroke-linecap: butt;  opacity: 1.000000" xlink:href="#m9281cae24120827b11d5ea8a7ad3e96b" x="181.933750" y="15.339063"/>
</g></g>
<g id="text3">
<defs>
<path id="c_a0416418d96557a09b8c1332d34883ba" d="M37.796875 -64.312500l-24.906250 38.921875l24.906250 0.000000zM35.203125 -72.906250l12.406250 0.000000l0.000000 47.515625l10.406250 0.000000l0.000000 8.203125l-10.406250 0.000000l0.000000 17.187500l-9.812500 0.000000l0.000000 -17.187500l-32.906250 0.000000l0.000000 -9.515625z"/>
</defs>
<g style="fill: #000000; opacity: 1.000000" transform="translate(178.746250,258.489062)scale(0.120000)">
<use xlink:href="#c_a0416418d96557a09b8c1332d34883ba"/>
</g>
</g>
</g>
<g id="xtick4">
<g id="line2d14">
<path style="fill: none; stroke: #000000; stroke-width: 0.500000; stroke-linejoin: round; stroke-linecap: butt; stroke-dasharray: 1.000000,3.000000; stroke-dashoffset: 0.000000; opacity: 1.000000" clip-path="url(#p320c4de3f9fe90afa576b2c8813c2397)" d="M241.453750 245.739062L241.453750 15.339063"/>
</g>
<g id="line2d15">
<g><use style="fill: none; stroke: #000000; stroke-width: 0.500000; stroke-linejoin: round; stroke-linecap: butt;  opacity: 1.000000" xlink:href="#m30e32995789d870ad79a2e54c91cf9c6" x="241.453750" y="245.739062"/>
</g></g>
<g id="line2d16">
<g><use style="fill: none; stroke: #000000; stroke-width: 0.500000; stroke-linejoin: round; stroke-linecap: butt;  opacity: 1.000000" xlink:href="#m9281cae24120827b11d5ea8a7ad3e96b" x="241.453750" y="15.339063"/>
</g></g>
<g id="text4">
<defs>
<path id="c_cc8d6d580d1b10c8632f7a42cd53db8a" d="M33.015625 -40.375000q-6.640625 0.000000 -10.531250 4.546875q-3.875000 4.531250 -3.875000 12.437500q0.000000 7.859375 3.875000 12.437500q3.890625 4.562500 10.531250 4.562500q6.640625 0.000000 10.515625 -4.562500q3.875000 -4.578125 3.875000 -12.437500q0.000000 -7.906250 -3.875000 -12.437500q-3.875000 -4.546875 -10.515625 -4.546875M52.593750 -71.296875l0.000000 8.984375q-3.718750 -1.750000 -7.500000 -2.671875q-3.781250 -0.937500 -7.500000 -0.937500q-9.765625 0.000000 -14.921875 6.593750q-5.140625 6.593750 -5.875000 19.921875q2.875000 -4.250000 7.218750 -6.515625q4.359375 -2.265625 9.578125 -2.265625q10.984375 0.000000 17.359375 6.671875q6.375000 6.656250 6.375000 18.125000q0.000000 11.234375 -6.640625 18.031250q-6.640625 6.781250 -17.671875 6.781250q-12.656250 0.000000 -19.343750 -9.687500q-6.687500 -9.703125 -6.687500 -28.109375q0.000000 -17.281250 8.203125 -27.562500q8.203125 -10.281250 22.015625 -10.281250q3.718750 0.000000 7.500000 0.734375q3.781250 0.734375 7.890625 2.187500"/>
</defs>
<g style="fill: #000000; opacity: 1.000000" transform="translate(238.438125,258.645312)scale(0.120000)">
<use xlink:href="#c_cc8d6d580d1b10c8632f7a42cd53db8a"/>
</g>
</g>
</g>
<g id="xtick5">
<g id="line2d17">
<path style="fill: none; stroke: #000000; stroke-width: 0.500000; stroke-linejoin: round; stroke-linecap: butt; stroke-dasharray: 1.000000,3.000000; stroke-dashoffset: 0.000000; opacity: 1.000000" clip-path="url(#p320c4de3f9fe90afa576b2c8813c2397)" d="M300.973750 245.739062L300.973750 15.339063"/>
</g>
<g id="line2d18">
<g><use style="fill: none; stroke: #000000; stroke-width: 0.500000; stroke-linejoin: round; stroke-linecap: butt;  opacity: 1.000000" xlink:href="#m30e32995789d870ad79a2e54c91cf9c6" x="300.973750" y="245.739062"/>
</g></g>
<g id="line2d19">
<g><use style="fill: none; stroke: #000000; stroke-width: 0.500000; stroke-linejoin: round; stroke-linecap: butt;  opacity: 1.000000" xlink:href="#m9281cae24120827b11d5ea8a7ad3e96b" x="300.973750" y="15.339063"/>
</g></g>
<g id="text5">
<defs>
<path id="c_bef35738d52871942e50b9de9b122bab" d="M31.781250 -34.625000q-7.031250 0.000000 -11.062500 3.765625q-4.015625 3.765625 -4.015625 10.343750q0.000000 6.593750 4.015625 10.359375q4.031250 3.765625 11.062500 3.765625q7.031250 0.000000 11.078125 -3.781250q4.062500 -3.796875 4.062500 -10.343750q0.000000 -6.578125 -4.031250 -10.343750q-4.015625 -3.765625 -11.109375 -3.765625M21.921875 -38.812500q-6.343750 -1.562500 -9.890625 -5.906250q-3.531250 -4.359375 -3.531250 -10.609375q0.000000 -8.734375 6.218750 -13.812500q6.234375 -5.078125 17.062500 -5.078125q10.890625 0.000000 17.093750 5.078125q6.203125 5.078125 6.203125 13.812500q0.000000 6.250000 -3.546875 10.609375q-3.531250 4.343750 -9.828125 5.906250q7.125000 1.656250 11.093750 6.500000q3.984375 4.828125 3.984375 11.796875q0.000000 10.609375 -6.468750 16.281250q-6.468750 5.656250 -18.531250 5.656250q-12.046875 0.000000 -18.531250 -5.656250q-6.468750 -5.671875 -6.468750 -16.281250q0.000000 -6.968750 4.000000 -11.796875q4.015625 -4.843750 11.140625 -6.500000M18.312500 -54.390625q0.000000 5.656250 3.531250 8.828125q3.546875 3.171875 9.937500 3.171875q6.359375 0.000000 9.937500 -3.171875q3.593750 -3.171875 3.593750 -8.828125q0.000000 -5.671875 -3.593750 -8.843750q-3.578125 -3.171875 -9.937500 -3.171875q-6.390625 0.000000 -9.937500 3.171875q-3.531250 3.171875 -3.531250 8.843750"/>
</defs>
<g style="fill: #000000; opacity: 1.000000" transform="translate(297.973750,258.645312)scale(0.120000)">
<use xlink:href="#c_bef35738d52871942e50b9de9b122bab"/>
</g>
</g>
</g>
<g id="xtick6">
<g id="line2d20">
<path style="fill: none; stroke: #000000; stroke-width: 0.500000; stroke-linejoin: round; stroke-linecap: butt; stroke-dasharray: 1.000000,3.000000; stroke-dashoffset: 0.000000; opacity: 1.000000" clip-path="url(#p320c4de3f9fe90afa576b2c8813c2397)" d="M360.493750 245.739062L360.493750 15.339063"/>
</g>
<g id="line2d21">
<g><use style="fill: none; stroke: #000000; stroke-width: 0.500000; stroke-linejoin: round; stroke-linecap: butt;  opacity: 1.000000" xlink:href="#m30e32995789d870ad79a2e54c91cf9c6" x="360.493750" y="245.739062"/>
</g></g>
<g id="line2d22">
<g><use style="fill: none; stroke: #000000; stroke-width: 0.500000; stroke-linejoin: round; stroke-linecap: butt;  opacity: 1.000000" xlink:href="#m9281cae24120827b11d5ea8a7ad3e96b" x="360.493750" y="15.339063"/>
</g></g>
<g id="text6">
<defs>
<path id="c_42baa63129a918535c52adb20d687ea7" d="M12.406250 -8.296875l16.109375 0.000000l0.000000 -55.625000l-17.531250 3.515625l0.000000 -8.984375l17.437500 -3.515625l9.859375 0.000000l0.000000 64.609375l16.109375 0.000000l0.000000 8.296875l-41.984375 0.000000z"/>
</defs>
<g style="fill: #000000; opacity: 1.000000" transform="translate(353.907812,258.645312)scale(0.120000)">
<use xlink:href="#c_42baa63129a918535c52adb20d687ea7"/>
<use xlink:href="#c_7a2040fe3b94fcd41d0a72c84e93b115" x="63.623047"/>
</g>
</g>
</g>
<g id="xtick7">
<g id="line2d23">
<path style="fill: none; stroke: #000000; stroke-width: 0.500000; stroke-linejoin: round; stroke-linecap: butt; stroke-dasharray: 1.000000,3.000000; stroke-dashoffset: 0.000000; opacity: 1.000000" clip-path="url(#p320c4de3f9fe90afa576b2c8813c2397)" d="M420.013750 245.739062L420.013750 15.339063"/>
</g>
<g id="line2d24">
<g><use style="fill: none; stroke: #000000; stroke-width: 0.500000; stroke-linejoin: round; stroke-linecap: butt;  opacity: 1.000000" xlink:href="#m30e32995789d870ad79a2e54c91cf9c6" x="420.013750" y="245.739062"/>
</g></g>
<g id="line2d25">
<g><use style="fill: none; stroke: #000000; stroke-width: 0.500000; stroke-linejoin: round; stroke-linecap: butt;  opacity: 1.000000" xlink:href="#m9281cae24120827b11d5ea8a7ad3e96b" x="420.013750" y="15.339063"/>
</g></g>
<g id="text7">
<g style="fill: #000000; opacity: 1.000000" transform="translate(413.630938,258.645312)scale(0.120000)">
<use xlink:href="#c_42baa63129a918535c52adb20d687ea7"/>
<use xlink:href="#c_ed3f3ed3ebfbd18bcb9c012009a68ad1" x="63.623047"/>
</g>
</g>
</g>
<g id="xtick8">
<g id="line2d26">
<path style="fill: none; stroke: #000000; stroke-width: 0.500000; stroke-linejoin: round; stroke-linecap: butt; stroke-dasharray: 1.000000,3.000000; stroke-dashoffset: 0.000000; opacity: 1.000000" clip-path="url(#p320c4de3f9fe90afa576b2c8813c2397)" d="M479.533750 245.739062L479.533750 15.339063"/>
</g>
<g id="line2d27">
<g><use style="fill: none; stroke: #000000; stroke-width: 0.500000; stroke-linejoin: round; stroke-linecap: butt;  opacity: 1.000000" xlink:href="#m30e32995789d870ad79a2e54c91cf9c6" x="479.533750" y="245.739062"/>
</g></g>
<g id="line2d28">
<g><use style="fill: none; stroke: #000000; stroke-width: 0.500000; stroke-linejoin: round; stroke-linecap: butt;  opacity: 1.000000" xlink:href="#m9281cae24120827b11d5ea8a7ad3e96b" x="479.533750" y="15.339063"/>
</g></g>
<g id="text8">
<g style="fill: #000000; opacity: 1.000000" transform="translate(472.885312,258.489062)scale(0.120000)">
<use xlink:href="#c_42baa63129a918535c52adb20d687ea7"/>
<use xlink:href="#c_a0416418d96557a09b8c1332d34883ba" x="63.623047"/>
</g>
</g>
</g>
<g id="xtick9">
<g id="line2d29">
<defs><path id="m3b2d125790092c17af877e29e2858cbc" d="M0.000000 0.000000L0.000000 -2.000000"/></defs>
<g><use style="fill: none; stroke: #000000; stroke-width: 0.500000; stroke-linejoin: round; stroke-linecap: butt;  opacity: 1.000000" xlink:href="#m3b2d125790092c17af877e29e2858cbc" x="77.773750" y="245.739062"/>
</g></g>
<g id="line2d30">
<defs><path id="ma703e823af2458ee1159643fa9e31d3d" d="M0.000000 0.000000L0.000000 2.000000"/></defs>
<g><use style="fill: none; stroke: #000000; stroke-width: 0.500000; stroke-linejoin: round; stroke-linecap: butt;  opacity: 1.000000" xlink:href="#ma703e823af2458ee1159643fa9e31d3d" x="77.773750" y="15.339063"/>
</g></g>
</g>
<g id="xtick10">
<g id="line2d31">
<g><use style="fill: none; stroke: #000000; stroke-width: 0.500000; stroke-linejoin: round; stroke-linecap: butt;  opacity: 1.000000" xlink:href="#m3b2d125790092c17af877e29e2858cbc" x="92.653750" y="245.739062"/>
</g></g>
<g id="line2d32">
<g><use style="fill: none; stroke: #000000; stroke-width: 0.500000; stroke-linejoin: round; stroke-linecap: butt;  opacity: 1.000000" xlink:href="#ma703e823af2458ee1159643fa9e31d3d" x="92.653750" y="15.339063"/>
</g></g>
</g>
<g id="xtick11">
<g id="line2d33">
<g><use style="fill: none; stroke: #000000; stroke-width: 0.500000; stroke-linejoin: round; stroke-linecap: butt;  opacity: 1.000000" xlink:href="#m3b2d125790092c17af877e29e2858cbc" x="107.533750" y="245.739062"/>
</g></g>
<g id="line2d34">
<g><use style="fill: none; stroke: #000000; stroke-width: 0.500000; stroke-linejoin: round; stroke-linecap: butt;  opacity: 1.000000" xlink:href="#ma703e823af2458ee1159643fa9e31d3d" x="107.533750" y="15.339063"/>
</g></g>
</g>
<g id="xtick12">
<g id="line2d35">
<g><use style="fill: none; stroke: #000000; stroke-width: 0.500000; stroke-linejoin: round; stroke-linecap: butt;  opacity: 1.000000" xlink:href="#m3b2d125790092c17af877e29e2858cbc" x="137.293750" y="245.739062"/>
</g></g>
<g id="line2d36">
<g><use style="fill: none; stroke: #000000; stroke-width: 0.500000; stroke-linejoin: round; stroke-linecap: butt;  opacity: 1.000000" xlink:href="#ma703e823af2458ee1159643fa9e31d3d" x="137.293750" y="15.339063"/>
</g></g>
</g>
<g id="xtick13">
<g id="line2d37">
<g><use style="fill: none; stroke: #000000; stroke-width: 0.500000; stroke-linejoin: round; stroke-linecap: butt;  opacity: 1.000000" xlink:href="#m3b2d125790092c17af877e29e2858cbc" x="152.173750" y="245.739062"/>
</g></g>
<g id="line2d38">
<g><use style="fill: none; stroke: #000000; stroke-width: 0.500000; stroke-linejoin: round; stroke-linecap: butt;  opacity: 1.000000" xlink:href="#ma703e823af2458ee1159643fa9e31d3d" x="152.173750" y="15.339063"/>
</g></g>
</g>
<g id="xtick14">
<g id="line2d39">
<g><use style="fill: none; stroke: #000000; stroke-width: 0.500000; stroke-linejoin: round; stroke-linecap: butt;  opacity: 1.000000" xlink:href="#m3b2d125790092c17af877e29e2858cbc" x="167.053750" y="245.739062"/>
</g></g>
<g id="line2d40">
<g><use style="fill: none; stroke: #000000; stroke-width: 0.500000; stroke-linejoin: round; stroke-linecap: butt;  opacity: 1.000000" xlink:href="#ma703e823af2458ee1159643fa9e31d3d" x="167.053750" y="15.339063"/>
</g></g>
</g>
<g id="xtick15">
<g id="line2d41">
<g><use style="fill: none; stroke: #000000; stroke-width: 0.500000; stroke-linejoin: round; stroke-linecap: butt;  opacity: 1.000000" xlink:href="#m3b2d125790092c17af877e29e2858cbc" x="196.813750" y="245.739062"/>
</g></g>
<g id="line2d42">
<g><use style="fill: none; stroke: #000000; stroke-width: 0.500000; stroke-linejoin: round; stroke-linecap: butt;  opacity: 1.000000" xlink:href="#ma703e823af2458ee1159643fa9e31d3d" x="196.813750" y="15.339063"/>
</g></g>
</g>
<g id="xtick16">
<g id="line2d43">
<g><use style="fill: none; stroke: #000000; stroke-width: 0.500000; stroke-linejoin: round; stroke-linecap: butt;  opacity: 1.000000" xlink:href="#m3b2d125790092c17af877e29e2858cbc" x="211.693750" y="245.739062"/>
</g></g>
<g id="line2d44">
<g><use style="fill: none; stroke: #000000; stroke-width: 0.500000; stroke-linejoin: round; stroke-linecap: butt;  opacity: 1.000000" xlink:href="#ma703e823af2458ee1159643fa9e31d3d" x="211.693750" y="15.339063"/>
</g></g>
</g>
<g id="xtick17">
<g id="line2d45">
<g><use style="fill: none; stroke: #000000; stroke-width: 0.500000; stroke-linejoin: round; stroke-linecap: butt;  opacity: 1.000000" xlink:href="#m3b2d125790092c17af877e29e2858cbc" x="226.573750" y="245.739062"/>
</g></g>
<g id="line2d46">
<g><use style="fill: none; stroke: #000000; stroke-width: 0.500000; stroke-linejoin: round; stroke-linecap: butt;  opacity: 1.000000" xlink:href="#ma703e823af2458ee1159643fa9e31d3d" x="226.573750" y="15.339063"/>
</g></g>
</g>
<g id="xtick18">
<g id="line2d47">
<g><use style="fill: none; stroke: #000000; stroke-width: 0.500000; stroke-linejoin: round; stroke-linecap: butt;  opacity: 1.000000" xlink:href="#m3b2d125790092c17af877e29e2858cbc" x="256.333750" y="245.739062"/>
</g></g>
<g id="line2d48">
<g><use style="fill: none; stroke: #000000; stroke-width: 0.500000; stroke-linejoin: round; stroke-linecap: butt;  opacity: 1.000000" xlink:href="#ma703e823af2458ee1159643fa9e31d3d" x="256.333750" y="15.339063"/>
</g></g>
</g>
<g id="xtick19">
<g id="line2d49">
<g><use style="fill: none; stroke: #000000; stroke-width: 0.500000; stroke-linejoin: round; stroke-linecap: butt;  opacity: 1.000000" xlink:href="#m3b2d125790092c17af877e29e2858cbc" x="271.213750" y="245.739062"/>
</g></g>
<g id="line2d50">
<g><use style="fill: none; stroke: #000000; stroke-width: 0.500000; stroke-linejoin: round; stroke-linecap: butt;  opacity: 1.000000" xlink:href="#ma703e823af2458ee1159643fa9e31d3d" x="271.213750" y="15.339063"/>
</g></g>
</g>
<g id="xtick20">
<g id="line2d51">
<g><use style="fill: none; stroke: #000000; stroke-width: 0.500000; stroke-linejoin: round; stroke-linecap: butt;  opacity: 1.000000" xlink:href="#m3b2d125790092c17af877e29e2858cbc" x="286.093750" y="245.739062"/>
</g></g>
<g id="line2d52">
<g><use style="fill: none; stroke: #000000; stroke-width: 0.500000; stroke-linejoin: round; stroke-linecap: butt;  opacity: 1.000000" xlink:href="#ma703e823af2458ee1159643fa9e31d3d" x="286.093750" y="15.339063"/>
</g></g>
</g>
<g id="xtick21">
<g id="line2d53">
<g><use style="fill: none; stroke: #000000; stroke-width: 0.500000; stroke-linejoin: round; stroke-linecap: butt;  opacity: 1.000000" xlink:href="#m3b2d125790092c17af877e29e2858cbc" x="315.853750" y="245.739062"/>
</g></g>
<g id="line2d54">
<g><use style="fill: none; stroke: #000000; stroke-width: 0.500000; stroke-linejoin: round; stroke-linecap: butt;  opacity: 1.000000" xlink:href="#ma703e823af2458ee1159643fa9e31d3d" x="315.853750" y="15.339063"/>
</g></g>
</g>
<g id="xtick22">
<g id="line2d55">
<g><use style="fill: none; stroke: #000000; stroke-width: 0.500000; stroke-linejoin: round; stroke-linecap: butt;  opacity: 1.000000" xlink:href="#m3b2d125790092c17af877e29e2858cbc" x="330.733750" y="245.739062"/>
</g></g>
<g id="line2d56">
<g><use style="fill: none; stroke: #000000; stroke-width: 0.500000; stroke-linejoin: round; stroke-linecap: butt;  opacity: 1.000000" xlink:href="#ma703e823af2458ee1159643fa9e31d3d" x="330.733750" y="15.339063"/>
</g></g>
</g>
<g id="xtick23">
<g id="line2d57">
<g><use style="fill: none; stroke: #000000; stroke-width: 0.500000; stroke-linejoin: round; stroke-linecap: butt;  opacity: 1.000000" xlink:href="#m3b2d125790092c17af877e29e2858cbc" x="345.613750" y="245.739062"/>
</g></g>
<g id="line2d58">
<g><use style="fill: none; stroke: #000000; stroke-width: 0.500000; stroke-linejoin: round; stroke-linecap: butt;  opacity: 1.000000" xlink:href="#ma703e823af2458ee1159643fa9e31d3d" x="345.613750" y="15.339063"/>
</g></g>
</g>
<g id="xtick24">
<g id="line2d59">
<g><use style="fill: none; stroke: #000000; stroke-width: 0.500000; stroke-linejoin: round; stroke-linecap: butt;  opacity: 1.000000" xlink:href="#m3b2d125790092c17af877e29e2858cbc" x="375.373750" y="245.739062"/>
</g></g>
<g id="line2d60">
<g><use style="fill: none; stroke: #000000; stroke-width: 0.500000; stroke-linejoin: round; stroke-linecap: butt;  opacity: 1.000000" xlink:href="#ma703e823af2458ee1159643fa9e31d3d" x="375.373750" y="15.339063"/>
</g></g>
</g>
<g id="xtick25">
<g id="line2d61">
<g><use style="fill: none; stroke: #000000; stroke-width: 0.500000; stroke-linejoin: round; stroke-linecap: butt;  opacity: 1.000000" xlink:href="#m3b2d125790092c17af877e29e2858cbc" x="390.253750" y="245.739062"/>
</g></g>
<g id="line2d62">
<g><use style="fill: none; stroke: #000000; stroke-width: 0.500000; stroke-linejoin: round; stroke-linecap: butt;  opacity: 1.000000" xlink:href="#ma703e823af2458ee1159643fa9e31d3d" x="390.253750" y="15.339063"/>
</g></g>
</g>
<g id="xtick26">
<g id="line2d63">
<g><use style="fill: none; stroke: #000000; stroke-width: 0.500000; stroke-linejoin: round; stroke-linecap: butt;  opacity: 1.000000" xlink:href="#m3b2d125790092c17af877e29e2858cbc" x="405.133750" y="245.739062"/>
</g></g>
<g id="line2d64">
<g><use style="fill: none; stroke: #000000; stroke-width: 0.500000; stroke-linejoin: round; stroke-linecap: butt;  opacity: 1.000000" xlink:href="#ma703e823af2458ee1159643fa9e31d3d" x="405.133750" y="15.339063"/>
</g></g>
</g>
<g id="xtick27">
<g id="line2d65">
<g><use style="fill: none; stroke: #000000; stroke-width: 0.500000; stroke-linejoin: round; stroke-linecap: butt;  opacity: 1.000000" xlink:href="#m3b2d125790092c17af877e29e2858cbc" x="434.893750" y="245.739062"/>
</g></g>
<g id="line2d66">
<g><use style="fill: none; stroke: #000000; stroke-width: 0.500000; stroke-linejoin: round; stroke-linecap: butt;  opacity: 1.000000" xlink:href="#ma703e823af2458ee1159643fa9e31d3d" x="434.893750" y="15.339063"/>
</g></g>
</g>
<g id="xtick28">
<g id="line2d67">
<g><use style="fill: none; stroke: #000000; stroke-width: 0.500000; stroke-linejoin: round; stroke-linecap: butt;  opacity: 1.000000" xlink:href="#m3b2d125790092c17af877e29e2858cbc" x="449.773750" y="245.739062"/>
</g></g>
<g id="line2d68">
<g><use style="fill: none; stroke: #000000; stroke-width: 0.500000; stroke-linejoin: round; stroke-linecap: butt;  opacity: 1.000000" xlink:href="#ma703e823af2458ee1159643fa9e31d3d" x="449.773750" y="15.339063"/>
</g></g>
</g>
<g id="xtick29">
<g id="line2d69">
<g><use style="fill: none; stroke: #000000; stroke-width: 0.500000; stroke-linejoin: round; stroke-linecap: butt;  opacity: 1.000000" xlink:href="#m3b2d125790092c17af877e29e2858cbc" x="464.653750" y="245.739062"/>
</g></g>
<g id="line2d70">
<g><use style="fill: none; stroke: #000000; stroke-width: 0.500000; stroke-linejoin: round; stroke-linecap: butt;  opacity: 1.000000" xlink:href="#ma703e823af2458ee1159643fa9e31d3d" x="464.653750" y="15.339063"/>
</g></g>
</g>
<g id="xtick30">
<g id="line2d71">
<g><use style="fill: none; stroke: #000000; stroke-width: 0.500000; stroke-linejoin: round; stroke-linecap: butt;  opacity: 1.000000" xlink:href="#m3b2d125790092c17af877e29e2858cbc" x="494.413750" y="245.739062"/>
</g></g>
<g id="line2d72">
<g><use style="fill: none; stroke: #000000; stroke-width: 0.500000; stroke-linejoin: round; stroke-linecap: butt;  opacity: 1.000000" xlink:href="#ma703e823af2458ee1159643fa9e31d3d" x="494.413750" y="15.339063"/>
</g></g>
</g>
<g id="text9">
<defs>
<path id="c_e86f490bde0b3795f8a34411d82f95e4" d="M12.109375 1.125000q-5.656250 0.000000 -8.171875 -4.140625q-2.515625 -4.156250 -2.515625 -10.171875q0.000000 -3.953125 0.703125 -7.734375q0.703125 -3.781250 2.140625 -7.656250q1.453125 -3.890625 3.296875 -7.281250q1.859375 -3.406250 4.156250 -6.625000q0.437500 -0.625000 1.171875 -0.625000q0.640625 0.000000 1.031250 0.390625q0.390625 0.390625 0.390625 0.921875q0.000000 0.531250 -0.296875 0.968750q-9.125000 12.562500 -9.125000 23.156250q0.000000 4.578125 2.109375 7.875000q2.125000 3.296875 6.484375 3.296875q3.750000 0.000000 6.953125 -2.187500q3.203125 -2.203125 5.546875 -5.625000q0.000000 -1.750000 0.609375 -5.453125q0.609375 -3.718750 1.890625 -6.625000q1.296875 -2.906250 3.109375 -2.906250q2.296875 0.000000 2.296875 2.687500q0.000000 1.562500 -0.671875 3.937500q-0.656250 2.359375 -1.468750 4.406250q-0.796875 2.046875 -1.968750 4.640625q1.171875 7.125000 7.140625 7.125000q3.453125 0.000000 6.937500 -2.000000q3.500000 -2.000000 6.187500 -5.250000q2.687500 -3.250000 4.218750 -7.000000q1.546875 -3.765625 1.546875 -7.125000q0.000000 -3.031250 -0.953125 -4.718750q-0.953125 -1.687500 -2.515625 -3.531250q-1.562500 -1.859375 -1.562500 -2.984375q0.000000 -1.953125 1.656250 -3.562500q1.671875 -1.609375 3.562500 -1.609375q2.453125 0.000000 3.468750 2.218750q1.031250 2.218750 1.031250 5.046875q0.000000 4.593750 -1.828125 11.578125q-1.828125 6.984375 -4.171875 11.625000q-3.234375 6.296875 -8.093750 10.625000q-4.859375 4.312500 -10.906250 4.312500q-3.859375 0.000000 -6.234375 -2.312500q-2.359375 -2.328125 -3.046875 -6.328125q-2.781250 3.953125 -6.343750 6.296875q-3.562500 2.343750 -7.765625 2.343750"/>
<path id="c_d385b7bbe58e08154ff387bfd902116e" d="M6.203125 -8.109375q0.000000 -1.468750 0.296875 -2.781250l7.218750 -28.703125l-10.500000 0.000000q-1.015625 0.000000 -1.015625 -1.328125q0.390625 -2.187500 1.312500 -2.187500l11.078125 0.000000l4.015625 -16.312500q0.390625 -1.328125 1.562500 -2.250000q1.171875 -0.921875 2.625000 -0.921875q1.281250 0.000000 2.125000 0.765625q0.859375 0.750000 0.859375 2.015625q0.000000 0.296875 -0.031250 0.468750q-0.015625 0.156250 -0.062500 0.359375l-4.000000 15.875000l10.296875 0.000000q1.031250 0.000000 1.031250 1.312500q-0.062500 0.250000 -0.203125 0.843750q-0.140625 0.578125 -0.390625 0.968750q-0.250000 0.390625 -0.734375 0.390625l-10.890625 0.000000l-7.171875 28.906250q-0.734375 2.828125 -0.734375 4.875000q0.000000 4.296875 2.937500 4.296875q4.390625 0.000000 7.781250 -4.125000q3.390625 -4.125000 5.203125 -9.062500q0.390625 -0.578125 0.781250 -0.578125l1.218750 0.000000q0.390625 0.000000 0.625000 0.265625q0.250000 0.265625 0.250000 0.609375q0.000000 0.203125 -0.093750 0.296875q-2.203125 6.046875 -6.406250 10.640625q-4.187500 4.593750 -9.609375 4.593750q-3.953125 0.000000 -6.671875 -2.578125q-2.703125 -2.593750 -2.703125 -6.656250"/>
</defs>
<g id="mathtext1">
<g style="fill: #000000" transform="translate(278.593750,274.817187)">
<use xlink:href="#c_e86f490bde0b3795f8a34411d82f95e4" transform="translate(0.000000,-1.609375)scale(0.150000)"/>
<use xlink:href="#c_d385b7bbe58e08154ff387bfd902116e" transform="translate(9.331055,-1.609375)scale(0.150000)"/>
</g>
</g>
</g>
</g>
<g id="matplotlib.axis2">
<g id="ytick1">
<g id="line2d73">
<path style="fill: none; stroke: #000000; stroke-width: 0.500000; stroke-linejoin: round; stroke-linecap: butt; stroke-dasharray: 1.000000,3.000000; stroke-dashoffset: 0.000000; opacity: 1.000000" clip-path="url(#p320c4de3f9fe90afa576b2c8813c2397)" d="M62.893750 245.739062L509.293750 245.739062"/>
</g>
<g id="line2d74">
<defs><path id="m3400efa6b1638b3fea9e19e898273957" d="M0.000000 0.000000L4.000000 0.000000"/></defs>
<g><use style="fill: none; stroke: #000000; stroke-width: 0.500000; stroke-linejoin: round; stroke-linecap: butt;  opacity: 1.000000" xlink:href="#m3400efa6b1638b3fea9e19e898273957" x="62.893750" y="245.739062"/>
</g></g>
<g id="line2d75">
<defs><path id="m20b58b2501143cb5e0a5e8f1ef6f1643" d="M0.000000 0.000000L-4.000000 0.000000"/></defs>
<g><use style="fill: none; stroke: #000000; stroke-width: 0.500000; stroke-linejoin: round; stroke-linecap: butt;  opacity: 1.000000" xlink:href="#m20b58b2501143cb5e0a5e8f1ef6f1643" x="509.293750" y="245.739062"/>
</g></g>
<g id="text10">
<defs>
<path id="c_6a8d56c819c37117ab4cf023bec22a5a" d="M10.593750 -35.500000l62.593750 0.000000l0.000000 8.296875l-62.593750 0.000000z"/>
<path id="c_ed3e21196fb739f392806f09ca0594ef" d="M10.687500 -12.406250l10.312500 0.000000l0.000000 12.406250l-10.312500 0.000000z"/>
</defs>
<g style="fill: #000000; opacity: 1.000000" transform="translate(31.800000,250.106250)scale(0.120000)">
<use xlink:href="#c_6a8d56c819c37117ab4cf023bec22a5a"/>
<use xlink:href="#c_42baa63129a918535c52adb20d687ea7" x="83.789062"/>
<use xlink:href="#c_ed3e21196fb739f392806f09ca0594ef" x="147.412109"/>
<use xlink:href="#c_7a2040fe3b94fcd41d0a72c84e93b115" x="179.199219"/>
</g>
</g>
</g>
<g id="ytick2">
<g id="line2d76">
<path style="fill: none; stroke: #000000; stroke-width: 0.500000; stroke-linejoin: round; stroke-linecap: butt; stroke-dasharray: 1.000000,3.000000; stroke-dashoffset: 0.000000; opacity: 1.000000" clip-path="url(#p320c4de3f9fe90afa576b2c8813c2397)" d="M62.893750 188.139062L509.293750 188.139062"/>
</g>
<g id="line2d77">
<g><use style="fill: none; stroke: #000000; stroke-width: 0.500000; stroke-linejoin: round; stroke-linecap: butt;  opacity: 1.000000" xlink:href="#m3400efa6b1638b3fea9e19e898273957" x="62.893750" y="188.139062"/>
</g></g>
<g id="line2d78">
<g><use style="fill: none; stroke: #000000; stroke-width: 0.500000; stroke-linejoin: round; stroke-linecap: butt;  opacity: 1.000000" xlink:href="#m20b58b2501143cb5e0a5e8f1ef6f1643" x="509.293750" y="188.139062"/>
</g></g>
<g id="text11">
<defs>
<path id="c_1260a2df50f305f3db244e29828f968e" d="M10.796875 -72.906250l38.718750 0.000000l0.000000 8.312500l-29.687500 0.000000l0.000000 17.859375q2.140625 -0.734375 4.281250 -1.093750q2.156250 -0.359375 4.312500 -0.359375q12.203125 0.000000 19.328125 6.687500q7.140625 6.687500 7.140625 18.109375q0.000000 11.765625 -7.328125 18.296875q-7.328125 6.515625 -20.656250 6.515625q-4.593750 0.000000 -9.359375 -0.781250q-4.750000 -0.781250 -9.828125 -2.343750l0.000000 -9.921875q4.390625 2.390625 9.078125 3.562500q4.687500 1.171875 9.906250 1.171875q8.453125 0.000000 13.375000 -4.437500q4.937500 -4.437500 4.937500 -12.062500q0.000000 -7.609375 -4.937500 -12.046875q-4.921875 -4.453125 -13.375000 -4.453125q-3.953125 0.000000 -7.890625 0.875000q-3.921875 0.875000 -8.015625 2.734375z"/>
</defs>
<g style="fill: #000000; opacity: 1.000000" transform="translate(32.050000,192.506250)scale(0.120000)">
<use xlink:href="#c_6a8d56c819c37117ab4cf023bec22a5a"/>
<use xlink:href="#c_7a2040fe3b94fcd41d0a72c84e93b115" x="83.789062"/>
<use xlink:href="#c_ed3e21196fb739f392806f09ca0594ef" x="147.412109"/>
<use xlink:href="#c_1260a2df50f305f3db244e29828f968e" x="179.199219"/>
</g>
</g>
</g>
<g id="ytick3">
<g id="line2d79">
<path style="fill: none; stroke: #000000; stroke-width: 0.500000; stroke-linejoin: round; stroke-linecap: butt; stroke-dasharray: 1.000000,3.000000; stroke-dashoffset: 0.000000; opacity: 1.000000" clip-path="url(#p320c4de3f9fe90afa576b2c8813c2397)" d="M62.893750 130.539062L509.293750 130.539062"/>
</g>
<g id="line2d80">
<g><use style="fill: none; stroke: #000000; stroke-width: 0.500000; stroke-linejoin: round; stroke-linecap: butt;  opacity: 1.000000" xlink:href="#m3400efa6b1638b3fea9e19e898273957" x="62.893750" y="130.539062"/>
</g></g>
<g id="line2d81">
<g><use style="fill: none; stroke: #000000; stroke-width: 0.500000; stroke-linejoin: round; stroke-linecap: butt;  opacity: 1.000000" xlink:href="#m20b58b2501143cb5e0a5e8f1ef6f1643" x="509.293750" y="130.539062"/>
</g></g>
<g id="text12">
<g style="fill: #000000; opacity: 1.000000" transform="translate(41.393750,134.906250)scale(0.120000)">
<use xlink:href="#c_7a2040fe3b94fcd41d0a72c84e93b115"/>
<use xlink:href="#c_ed3e21196fb739f392806f09ca0594ef" x="63.623047"/>
<use xlink:href="#c_7a2040fe3b94fcd41d0a72c84e93b115" x="95.410156"/>
</g>
</g>
</g>
<g id="ytick4">
<g id="line2d82">
<path style="fill: none; stroke: #000000; stroke-width: 0.500000; stroke-linejoin: round; stroke-linecap: butt; stroke-dasharray: 1.000000,3.000000; stroke-dashoffset: 0.000000; opacity: 1.000000" clip-path="url(#p320c4de3f9fe90afa576b2c8813c2397)" d="M62.893750 72.939063L509.293750 72.939063"/>
</g>
<g id="line2d83">
<g><use style="fill: none; stroke: #000000; stroke-width: 0.500000; stroke-linejoin: round; stroke-linecap: butt;  opacity: 1.000000" xlink:href="#m3400efa6b1638b3fea9e19e898273957" x="62.893750" y="72.939063"/>
</g></g>
<g id="line2d84">
<g><use style="fill: none; stroke: #000000; stroke-width: 0.500000; stroke-linejoin: round; stroke-linecap: butt;  opacity: 1.000000" xlink:href="#m20b58b2501143cb5e0a5e8f1ef6f1643" x="509.293750" y="72.939063"/>
</g></g>
<g id="text13">
<g style="fill: #000000; opacity: 1.000000" transform="translate(41.643750,77.306250)scale(0.120000)">
<use xlink:href="#c_7a2040fe3b94fcd41d0a72c84e93b115"/>
<use xlink:href="#c_ed3e21196fb739f392806f09ca0594ef" x="63.623047"/>
<use xlink:href="#c_1260a2df50f305f3db244e29828f968e" x="95.410156"/>
</g>
</g>
</g>
<g id="ytick5">
<g id="line2d85">
<path style="fill: none; stroke: #000000; stroke-width: 0.500000; stroke-linejoin: round; stroke-linecap: butt; stroke-dasharray: 1.000000,3.000000; stroke-dashoffset: 0.000000; opacity: 1.000000" clip-path="url(#p320c4de3f9fe90afa576b2c8813c2397)" d="M62.893750 15.339063L509.293750 15.339063"/>
</g>
<g id="line2d86">
<g><use style="fill: none; stroke: #000000; stroke-width: 0.500000; stroke-linejoin: round; stroke-linecap: butt;  opacity: 1.000000" xlink:href="#m3400efa6b1638b3fea9e19e898273957" x="62.893750" y="15.339063"/>
</g></g>
<g id="line2d87">
<g><use style="fill: none; stroke: #000000; stroke-width: 0.500000; stroke-linejoin: round; stroke-linecap: butt;  opacity: 1.000000" xlink:href="#m20b58b2501143cb5e0a5e8f1ef6f1643" x="509.293750" y="15.339063"/>
</g></g>
<g id="text14">
<g style="fill: #000000; opacity: 1.000000" transform="translate(41.909375,19.706250)scale(0.120000)">
<use xlink:href="#c_42baa63129a918535c52adb20d687ea7"/>
<use xlink:href="#c_ed3e21196fb739f392806f09ca0594ef" x="63.623047"/>
<use xlink:href="#c_7a2040fe3b94fcd41d0a72c84e93b115" x="95.410156"/>
</g>
</g>
</g>
<g id="ytick6">
<g id="line2d88">
<defs><path id="mb39cfcf7402899e54c4d755745537394" d="M0.000000 0.000000L2.000000 0.000000"/></defs>
<g><use style="fill: none; stroke: #000000; stroke-width: 0.500000; stroke-linejoin: round; stroke-linecap: butt;  opacity: 1.000000" xlink:href="#mb39cfcf7402899e54c4d755745537394" x="62.893750" y="234.219062"/>
</g></g>
<g id="line2d89">
<defs><path id="m6046ccd8b6d57b9fb587e3fdd930e9c5" d="M0.000000 0.000000L-2.000000 0.000000"/></defs>
<g><use style="fill: none; stroke: #000000; stroke-width: 0.500000; stroke-linejoin: round; stroke-linecap: butt;  opacity: 1.000000" xlink:href="#m6046ccd8b6d57b9fb587e3fdd930e9c5" x="509.293750" y="234.219062"/>
</g></g>
</g>
<g id="ytick7">
<g id="line2d90">
<g><use style="fill: none; stroke: #000000; stroke-width: 0.500000; stroke-linejoin: round; stroke-linecap: butt;  opacity: 1.000000" xlink:href="#mb39cfcf7402899e54c4d755745537394" x="62.893750" y="222.699062"/>
</g></g>
<g id="line2d91">
<g><use style="fill: none; stroke: #000000; stroke-width: 0.500000; stroke-linejoin: round; stroke-linecap: butt;  opacity: 1.000000" xlink:href="#m6046ccd8b6d57b9fb587e3fdd930e9c5" x="509.293750" y="222.699062"/>
</g></g>
</g>
<g id="ytick8">
<g id="line2d92">
<g><use style="fill: none; stroke: #000000; stroke-width: 0.500000; stroke-linejoin: round; stroke-linecap: butt;  opacity: 1.000000" xlink:href="#mb39cfcf7402899e54c4d755745537394" x="62.893750" y="211.179062"/>
</g></g>
<g id="line2d93">
<g><use style="fill: none; stroke: #000000; stroke-width: 0.500000; stroke-linejoin: round; stroke-linecap: butt;  opacity: 1.000000" xlink:href="#m6046ccd8b6d57b9fb587e3fdd930e9c5" x="509.293750" y="211.179062"/>
</g></g>
</g>
<g id="ytick9">
<g id="line2d94">
<g><use style="fill: none; stroke: #000000; stroke-width: 0.500000; stroke-linejoin: round; stroke-linecap: butt;  opacity: 1.000000" xlink:href="#mb39cfcf7402899e54c4d755745537394" x="62.893750" y="199.659062"/>
</g></g>
<g id="line2d95">
<g><use style="fill: none; stroke: #000000; stroke-width: 0.500000; stroke-linejoin: round; stroke-linecap: butt;  opacity: 1.000000" xlink:href="#m6046ccd8b6d57b9fb587e3fdd930e9c5" x="509.293750" y="199.659062"/>
</g></g>
</g>
<g id="ytick10">
<g id="line2d96">
<g><use style="fill: none; stroke: #000000; stroke-width: 0.500000; stroke-linejoin: round; stroke-linecap: butt;  opacity: 1.000000" xlink:href="#mb39cfcf7402899e54c4d755745537394" x="62.893750" y="176.619062"/>
</g></g>
<g id="line2d97">
<g><use style="fill: none; stroke: #000000; stroke-width: 0.500000; stroke-linejoin: round; stroke-linecap: butt;  opacity: 1.000000" xlink:href="#m6046ccd8b6d57b9fb587e3fdd930e9c5" x="509.293750" y="176.619062"/>
</g></g>
</g>
<g id="ytick11">
<g id="line2d98">
<g><use style="fill: none; stroke: #000000; stroke-width: 0.500000; stroke-linejoin: round; stroke-linecap: butt;  opacity: 1.000000" xlink:href="#mb39cfcf7402899e54c4d755745537394" x="62.893750" y="165.099062"/>
</g></g>
<g id="line2d99">
<g><use style="fill: none; stroke: #000000; stroke-width: 0.500000; stroke-linejoin: round; stroke-linecap: butt;  opacity: 1.000000" xlink:href="#m6046ccd8b6d57b9fb587e3fdd930e9c5" x="509.293750" y="165.099062"/>
</g></g>
</g>
<g id="ytick12">
<g id="line2d100">
<g><use style="fill: none; stroke: #000000; stroke-width: 0.500000; stroke-linejoin: round; stroke-linecap: butt;  opacity: 1.000000" xlink:href="#mb39cfcf7402899e54c4d755745537394" x="62.893750" y="153.579062"/>
</g></g>
<g id="line2d101">
<g><use style="fill: none; stroke: #000000; stroke-width: 0.500000; stroke-linejoin: round; stroke-linecap: butt;  opacity: 1.000000" xlink:href="#m6046ccd8b6d57b9fb587e3fdd930e9c5" x="509.293750" y="153.579062"/>
</g></g>
</g>
<g id="ytick13">
<g id="line2d102">
<g><use style="fill: none; stroke: #000000; stroke-width: 0.500000; stroke-linejoin: round; stroke-linecap: butt;  opacity: 1.000000" xlink:href="#mb39cfcf7402899e54c4d755745537394" x="62.893750" y="142.059062"/>
</g></g>
<g id="line2d103">
<g><use style="fill: none; stroke: #000000; stroke-width: 0.500000; stroke-linejoin: round; stroke-linecap: butt;  opacity: 1.000000" xlink:href="#m6046ccd8b6d57b9fb587e3fdd930e9c5" x="509.293750" y="142.059062"/>
</g></g>
</g>
<g id="ytick14">
<g id="line2d104">
<g><use style="fill: none; stroke: #000000; stroke-width: 0.500000; stroke-linejoin: round; stroke-linecap: butt;  opacity: 1.000000" xlink:href="#mb39cfcf7402899e54c4d755745537394" x="62.893750" y="119.019062"/>
</g></g>
<g id="line2d105">
<g><use style="fill: none; stroke: #000000; stroke-width: 0.500000; stroke-linejoin: round; stroke-linecap: butt;  opacity: 1.000000" xlink:href="#m6046ccd8b6d57b9fb587e3fdd930e9c5" x="509.293750" y="119.019062"/>
</g></g>
</g>
<g id="ytick15">
<g id="line2d106">
<g><use style="fill: none; stroke: #000000; stroke-width: 0.500000; stroke-linejoin: round; stroke-linecap: butt;  opacity: 1.000000" xlink:href="#mb39cfcf7402899e54c4d755745537394" x="62.893750" y="107.499062"/>
</g></g>
<g id="line2d107">
<g><use style="fill: none; stroke: #000000; stroke-width: 0.500000; stroke-linejoin: round; stroke-linecap: butt;  opacity: 1.000000" xlink:href="#m6046ccd8b6d57b9fb587e3fdd930e9c5" x="509.293750" y="107.499062"/>
</g></g>
</g>
<g id="ytick16">
<g id="line2d108">
<g><use style="fill: none; stroke: #000000; stroke-width: 0.500000; stroke-linejoin: round; stroke-linecap: butt;  opacity: 1.000000" xlink:href="#mb39cfcf7402899e54c4d755745537394" x="62.893750" y="95.979062"/>
</g></g>
<g id="line2d109">
<g><use style="fill: none; stroke: #000000; stroke-width: 0.500000; stroke-linejoin: round; stroke-linecap: butt;  opacity: 1.000000" xlink:href="#m6046ccd8b6d57b9fb587e3fdd930e9c5" x="509.293750" y="95.979062"/>
</g></g>
</g>
<g id="ytick17">
<g id="line2d110">
<g><use style="fill: none; stroke: #000000; stroke-width: 0.500000; stroke-linejoin: round; stroke-linecap: butt;  opacity: 1.000000" xlink:href="#mb39cfcf7402899e54c4d755745537394" x="62.893750" y="84.459062"/>
</g></g>
<g id="line2d111">
<g><use style="fill: none; stroke: #000000; stroke-width: 0.500000; stroke-linejoin: round; stroke-linecap: butt;  opacity: 1.000000" xlink:href="#m6046ccd8b6d57b9fb587e3fdd930e9c5" x="509.293750" y="84.459062"/>
</g></g>
</g>
<g id="ytick18">
<g id="line2d112">
<g><use style="fill: none; stroke: #000000; stroke-width: 0.500000; stroke-linejoin: round; stroke-linecap: butt;  opacity: 1.000000" xlink:href="#mb39cfcf7402899e54c4d755745537394" x="62.893750" y="61.419062"/>
</g></g>
<g id="line2d113">
<g><use style="fill: none; stroke: #000000; stroke-width: 0.500000; stroke-linejoin: round; stroke-linecap: butt;  opacity: 1.000000" xlink:href="#m6046ccd8b6d57b9fb587e3fdd930e9c5" x="509.293750" y="61.419062"/>
</g></g>
</g>
<g id="ytick19">
<g id="line2d114">
<g><use style="fill: none; stroke: #000000; stroke-width: 0.500000; stroke-linejoin: round; stroke-linecap: butt;  opacity: 1.000000" xlink:href="#mb39cfcf7402899e54c4d755745537394" x="62.893750" y="49.899062"/>
</g></g>
<g id="line2d115">
<g><use style="fill: none; stroke: #000000; stroke-width: 0.500000; stroke-linejoin: round; stroke-linecap: butt;  opacity: 1.000000" xlink:href="#m6046ccd8b6d57b9fb587e3fdd930e9c5" x="509.293750" y="49.899062"/>
</g></g>
</g>
<g id="ytick20">
<g id="line2d116">
<g><use style="fill: none; stroke: #000000; stroke-width: 0.500000; stroke-linejoin: round; stroke-linecap: butt;  opacity: 1.000000" xlink:href="#mb39cfcf7402899e54c4d755745537394" x="62.893750" y="38.379062"/>
</g></g>
<g id="line2d117">
<g><use style="fill: none; stroke: #000000; stroke-width: 0.500000; stroke-linejoin: round; stroke-linecap: butt;  opacity: 1.000000" xlink:href="#m6046ccd8b6d57b9fb587e3fdd930e9c5" x="509.293750" y="38.379062"/>
</g></g>
</g>
<g id="ytick21">
<g id="line2d118">
<g><use style="fill: none; stroke: #000000; stroke-width: 0.500000; stroke-linejoin: round; stroke-linecap: butt;  opacity: 1.000000" xlink:href="#mb39cfcf7402899e54c4d755745537394" x="62.893750" y="26.859062"/>
</g></g>
<g id="line2d119">
<g><use style="fill: none; stroke: #000000; stroke-width: 0.500000; stroke-linejoin: round; stroke-linecap: butt;  opacity: 1.000000" xlink:href="#m6046ccd8b6d57b9fb587e3fdd930e9c5" x="509.293750" y="26.859062"/>
</g></g>
</g>
<g id="text15">
<defs>
<path id="c_277960698c3e9ebfcde4d2161536ce57" d="M7.812500 -2.875000q1.765625 1.359375 4.984375 1.359375q3.125000 0.000000 5.515625 -3.000000q2.390625 -3.000000 3.265625 -6.562500l4.546875 -17.734375q1.078125 -4.828125 1.078125 -6.593750q0.000000 -2.484375 -1.390625 -4.343750q-1.390625 -1.859375 -3.890625 -1.859375q-3.171875 0.000000 -5.953125 1.984375q-2.781250 1.984375 -4.687500 5.031250q-1.906250 3.046875 -2.687500 6.171875q-0.187500 0.640625 -0.781250 0.640625l-1.218750 0.000000q-0.781250 0.000000 -0.781250 -0.937500l0.000000 -0.281250q0.968750 -3.718750 3.312500 -7.250000q2.343750 -3.546875 5.734375 -5.734375q3.406250 -2.203125 7.265625 -2.203125q3.656250 0.000000 6.609375 1.953125q2.953125 1.953125 4.171875 5.312500q1.718750 -3.062500 4.375000 -5.156250q2.656250 -2.109375 5.828125 -2.109375q2.156250 0.000000 4.390625 0.765625q2.250000 0.750000 3.671875 2.312500q1.421875 1.562500 1.421875 3.906250q0.000000 2.531250 -1.640625 4.375000q-1.640625 1.828125 -4.171875 1.828125q-1.609375 0.000000 -2.687500 -1.031250q-1.078125 -1.031250 -1.078125 -2.593750q0.000000 -2.093750 1.437500 -3.671875q1.453125 -1.593750 3.453125 -1.890625q-1.812500 -1.421875 -4.984375 -1.421875q-3.218750 0.000000 -5.593750 2.984375q-2.359375 2.984375 -3.343750 6.640625l-4.390625 17.671875q-1.078125 4.015625 -1.078125 6.593750q0.000000 2.546875 1.437500 4.375000q1.437500 1.828125 3.843750 1.828125q4.687500 0.000000 8.359375 -4.125000q3.687500 -4.125000 4.859375 -9.062500q0.203125 -0.578125 0.781250 -0.578125l1.234375 0.000000q0.390625 0.000000 0.625000 0.265625q0.250000 0.265625 0.250000 0.609375q0.000000 0.093750 -0.093750 0.296875q-1.421875 5.953125 -5.968750 10.593750q-4.531250 4.640625 -10.250000 4.640625q-3.656250 0.000000 -6.609375 -1.968750q-2.953125 -1.984375 -4.187500 -5.359375q-1.562500 2.937500 -4.328125 5.140625q-2.750000 2.187500 -5.875000 2.187500q-2.140625 0.000000 -4.421875 -0.765625q-2.265625 -0.750000 -3.687500 -2.312500q-1.406250 -1.562500 -1.406250 -3.953125q0.000000 -2.343750 1.625000 -4.265625q1.640625 -1.937500 4.093750 -1.937500q1.656250 0.000000 2.781250 1.000000q1.125000 1.000000 1.125000 2.609375q0.000000 2.109375 -1.406250 3.671875q-1.390625 1.562500 -3.484375 1.953125"/>
<path id="c_06a7a4502300c60b4feec85758ecf628" d="M31.000000 24.812500q-5.562500 -4.406250 -9.593750 -10.093750q-4.015625 -5.687500 -6.593750 -12.140625q-2.562500 -6.437500 -3.828125 -13.468750q-1.265625 -7.031250 -1.265625 -14.109375q0.000000 -7.171875 1.265625 -14.203125q1.265625 -7.031250 3.875000 -13.531250q2.625000 -6.500000 6.671875 -12.156250q4.062500 -5.671875 9.468750 -9.921875q0.000000 -0.187500 0.500000 -0.187500l0.921875 0.000000q0.296875 0.000000 0.531250 0.265625q0.250000 0.265625 0.250000 0.609375q0.000000 0.437500 -0.187500 0.640625q-4.890625 4.781250 -8.140625 10.250000q-3.250000 5.468750 -5.234375 11.656250q-1.968750 6.171875 -2.843750 12.796875q-0.875000 6.609375 -0.875000 13.781250q0.000000 31.781250 16.984375 48.296875q0.296875 0.281250 0.296875 0.828125q0.000000 0.234375 -0.265625 0.546875q-0.265625 0.328125 -0.515625 0.328125l-0.921875 0.000000q-0.500000 0.000000 -0.500000 -0.187500"/>
<path id="c_b865a8a4692360a5eaaff4ecf56eccf7" d="M6.500000 25.000000q-0.890625 0.000000 -0.890625 -0.875000q0.000000 -0.437500 0.203125 -0.640625q17.093750 -16.703125 17.093750 -48.484375q0.000000 -31.781250 -16.906250 -48.296875q-0.390625 -0.234375 -0.390625 -0.828125q0.000000 -0.343750 0.265625 -0.609375q0.281250 -0.265625 0.625000 -0.265625l0.921875 0.000000q0.296875 0.000000 0.484375 0.187500q7.187500 5.671875 11.968750 13.781250q4.781250 8.093750 7.000000 17.281250q2.234375 9.171875 2.234375 18.750000q0.000000 7.078125 -1.203125 13.937500q-1.203125 6.859375 -3.812500 13.515625q-2.609375 6.671875 -6.609375 12.312500q-4.000000 5.640625 -9.578125 10.046875q-0.187500 0.187500 -0.484375 0.187500z"/>
<path id="c_62db141412f5d9d8ddcda81385ac812d" d="M5.609375 23.000000q0.000000 -0.296875 0.109375 -0.390625l34.765625 -96.390625q0.187500 -0.578125 0.671875 -0.890625q0.500000 -0.328125 1.125000 -0.328125q0.890625 0.000000 1.437500 0.546875q0.562500 0.531250 0.562500 1.453125l0.000000 0.390625l-34.765625 96.390625q-0.578125 1.218750 -1.890625 1.218750q-0.843750 0.000000 -1.437500 -0.593750q-0.578125 -0.578125 -0.578125 -1.406250"/>
<path id="c_f47f2818876b2f1a61c47f270461e46e" d="M25.000000 2.203125q-12.250000 0.000000 -16.671875 -10.078125q-4.421875 -10.093750 -4.421875 -24.015625q0.000000 -8.687500 1.578125 -16.343750q1.593750 -7.671875 6.296875 -13.015625q4.718750 -5.359375 13.218750 -5.359375q6.593750 0.000000 10.781250 3.234375q4.203125 3.218750 6.406250 8.328125q2.203125 5.093750 3.000000 10.937500q0.812500 5.828125 0.812500 12.218750q0.000000 8.593750 -1.593750 16.093750q-1.578125 7.500000 -6.218750 12.750000q-4.640625 5.250000 -13.187500 5.250000M25.000000 -0.390625q5.562500 0.000000 8.296875 -5.703125q2.734375 -5.718750 3.375000 -12.656250q0.640625 -6.937500 0.640625 -14.750000q0.000000 -7.515625 -0.640625 -13.859375q-0.640625 -6.359375 -3.359375 -11.500000q-2.703125 -5.156250 -8.312500 -5.156250q-5.656250 0.000000 -8.390625 5.187500q-2.734375 5.171875 -3.375000 11.500000q-0.640625 6.312500 -0.640625 13.828125q0.000000 5.562500 0.265625 10.500000q0.281250 4.937500 1.453125 10.187500q1.171875 5.250000 3.781250 8.843750q2.609375 3.578125 6.906250 3.578125"/>
</defs>
<g id="mathtext2">
<g style="fill: #000000" transform="translate(26.800000,161.039062)rotate(-90.0)">
<use xlink:href="#c_277960698c3e9ebfcde4d2161536ce57" transform="translate(0.000000,-4.750000)scale(0.150000)"/>
<use xlink:href="#c_06a7a4502300c60b4feec85758ecf628" transform="translate(8.562012,-4.750000)scale(0.150000)"/>
<use xlink:href="#c_d385b7bbe58e08154ff387bfd902116e" transform="translate(14.384766,-4.750000)scale(0.150000)"/>
<use xlink:href="#c_b865a8a4692360a5eaaff4ecf56eccf7" transform="translate(19.797363,-4.750000)scale(0.150000)"/>
<use xlink:href="#c_62db141412f5d9d8ddcda81385ac812d" transform="translate(25.620117,-4.750000)scale(0.150000)"/>
<use xlink:href="#c_277960698c3e9ebfcde4d2161536ce57" transform="translate(33.120117,-4.750000)scale(0.150000)"/>
<use xlink:href="#c_06a7a4502300c60b4feec85758ecf628" transform="translate(41.682129,-4.750000)scale(0.150000)"/>
<use xlink:href="#c_f47f2818876b2f1a61c47f270461e46e" transform="translate(47.504883,-4.750000)scale(0.150000)"/>
<use xlink:href="#c_b865a8a4692360a5eaaff4ecf56eccf7" transform="translate(55.004883,-4.750000)scale(0.150000)"/>
</g>
</g>
</g>
</g>
<g id="patch3">
<path style="fill: none; stroke: #000000; stroke-width: 1.000000; stroke-linejoin: round; stroke-linecap: square;  opacity: 1.000000" d="M62.893750 15.339063L509.293750 15.339063"/>
</g>
<g id="patch4">
<path style="fill: none; stroke: #000000; stroke-width: 1.000000; stroke-linejoin: round; stroke-linecap: square;  opacity: 1.000000" d="M509.293750 245.739062L509.293750 15.339063"/>
</g>
<g id="patch5">
<path style="fill: none; stroke: #000000; stroke-width: 1.000000; stroke-linejoin: round; stroke-linecap: square;  opacity: 1.000000" d="M62.893750 245.739062L509.293750 245.739062"/>
</g>
<g id="patch6">
<path style="fill: none; stroke: #000000; stroke-width: 1.000000; stroke-linejoin: round; stroke-linecap: square;  opacity: 1.000000" d="M62.893750 245.739062L62.893750 15.339063"/>
</g>
<g id="legend1">
<g id="patch7">
<path style="fill: #ffffff; stroke: #000000; stroke-width: 1.000000; stroke-linejoin: round; stroke-linecap: square;  opacity: 1.000000" d="M410.253750 238.539062L502.093750 238.539062L502.093750 149.419062 L410.253750 149.419062L410.253750 238.539062z"/>
</g>
<g id="line2d120">
<path style="fill: none; stroke: #0000ff; stroke-width: 1.000000; stroke-linejoin: round; stroke-linecap: square;  opacity: 1.000000" d="M420.333750 161.139062L440.493750 161.139062"/>
</g>
<g id="line2d121">
</g>
<g id="text16">
<defs>
<path id="c_de7dfbad6a159ea4bf302c80754c00c9" d="M17.671875 15.578125q0.250000 -1.171875 1.421875 -1.171875q0.187500 0.000000 1.718750 1.000000q1.546875 1.000000 3.281250 1.750000q1.734375 0.765625 3.781250 0.765625q2.156250 0.000000 3.593750 -2.000000q1.437500 -2.000000 1.437500 -4.296875q0.000000 -2.296875 -1.515625 -3.906250q-1.500000 -1.609375 -3.796875 -2.390625l-10.203125 -3.421875q-6.250000 -2.156250 -9.531250 -6.859375q-3.265625 -4.718750 -3.265625 -11.453125q0.000000 -5.718750 2.062500 -12.203125q2.078125 -6.500000 5.734375 -12.593750q3.671875 -6.109375 8.453125 -10.968750q4.796875 -4.859375 9.968750 -7.546875q-1.031250 -2.046875 -1.031250 -4.781250q0.000000 -5.421875 2.109375 -5.421875q0.531250 0.000000 0.921875 0.390625q0.390625 0.390625 0.390625 0.921875q0.000000 0.734375 -0.250000 2.281250q-0.234375 1.531250 -0.234375 1.921875q0.000000 1.812500 0.578125 3.515625q2.593750 -1.031250 4.796875 -1.031250q9.218750 0.000000 9.218750 2.843750q0.000000 3.359375 -10.203125 3.359375q-3.031250 0.000000 -4.781250 -1.796875q-4.296875 2.437500 -8.281250 6.828125q-3.984375 4.390625 -7.062500 9.859375q-3.062500 5.468750 -4.781250 11.046875q-1.703125 5.562500 -1.703125 10.593750q0.000000 10.781250 9.812500 14.203125l10.687500 3.562500q3.375000 1.031250 5.500000 3.593750q2.125000 2.562500 2.125000 6.125000q0.000000 2.890625 -1.468750 5.734375q-1.468750 2.859375 -3.953125 4.671875q-2.484375 1.812500 -5.515625 1.812500q-2.390625 0.000000 -6.203125 -1.593750q-3.812500 -1.593750 -3.812500 -3.343750M35.109375 -58.796875q-0.093750 0.000000 0.875000 0.390625q0.437500 0.000000 0.703125 0.031250q0.281250 0.031250 0.625000 0.078125q4.781250 0.000000 6.875000 -0.593750q-1.906250 -0.390625 -6.093750 -0.390625q-1.375000 0.000000 -2.984375 0.484375"/>
<path id="c_7bbc93c01755cdeb977d08bdfb9ce616" d="M7.515625 -13.281250q-0.828125 0.000000 -1.375000 -0.625000q-0.531250 -0.640625 -0.531250 -1.375000q0.000000 -0.828125 0.531250 -1.406250q0.546875 -0.593750 1.375000 -0.593750l62.796875 0.000000q0.734375 0.000000 1.265625 0.593750q0.546875 0.578125 0.546875 1.406250q0.000000 0.734375 -0.546875 1.375000q-0.531250 0.625000 -1.265625 0.625000zM7.515625 -32.718750q-0.828125 0.000000 -1.375000 -0.578125q-0.531250 -0.593750 -0.531250 -1.421875q0.000000 -0.734375 0.531250 -1.359375q0.546875 -0.640625 1.375000 -0.640625l62.796875 0.000000q0.734375 0.000000 1.265625 0.640625q0.546875 0.625000 0.546875 1.359375q0.000000 0.828125 -0.546875 1.421875q-0.531250 0.578125 -1.265625 0.578125z"/>
<path id="c_8b48a7401ae680eb5f4c605f13a7b112" d="M8.406250 -5.515625q0.000000 -2.250000 1.656250 -3.859375q1.656250 -1.609375 3.859375 -1.609375q1.359375 0.000000 2.671875 0.734375q1.328125 0.734375 2.062500 2.046875q0.734375 1.312500 0.734375 2.687500q0.000000 2.187500 -1.625000 3.859375q-1.609375 1.656250 -3.843750 1.656250q-2.203125 0.000000 -3.859375 -1.656250q-1.656250 -1.671875 -1.656250 -3.859375"/>
</defs>
<g id="mathtext3">
<g style="fill: #000000" transform="translate(456.333750,169.179062)">
<use xlink:href="#c_de7dfbad6a159ea4bf302c80754c00c9" transform="translate(0.000000,-3.937500)scale(0.144000)"/>
<use xlink:href="#c_7bbc93c01755cdeb977d08bdfb9ce616" transform="translate(8.815656,-3.937500)scale(0.144000)"/>
<use xlink:href="#c_f47f2818876b2f1a61c47f270461e46e" transform="translate(20.904947,-3.937500)scale(0.144000)"/>
<use xlink:href="#c_8b48a7401ae680eb5f4c605f13a7b112" transform="translate(28.100259,-3.937500)scale(0.144000)"/>
<use xlink:href="#c_f47f2818876b2f1a61c47f270461e46e" transform="translate(32.205176,-3.937500)scale(0.144000)"/>
</g>
</g>
</g>
<g id="line2d122">
<path style="fill: none; stroke: #008000; stroke-width: 1.000000; stroke-linejoin: round; stroke-linecap: square;  opacity: 1.000000" d="M420.333750 182.339063L440.493750 182.339063"/>
</g>
<g id="line2d123">
</g>
<g id="text17">
<defs>
<path id="c_7d09e94cce4bdf71f2297f5bbc354b76" d="M8.687500 -11.375000q1.031250 2.921875 3.156250 5.328125q2.125000 2.390625 5.031250 3.734375q2.906250 1.328125 6.031250 1.328125q7.218750 0.000000 9.953125 -5.609375q2.734375 -5.609375 2.734375 -13.625000q0.000000 -3.468750 -0.125000 -5.828125q-0.109375 -2.375000 -0.656250 -4.562500q-0.921875 -3.515625 -3.250000 -6.156250q-2.312500 -2.640625 -5.687500 -2.640625q-3.359375 0.000000 -5.781250 1.031250q-2.421875 1.015625 -3.937500 2.390625q-1.500000 1.359375 -2.671875 2.875000q-1.171875 1.515625 -1.468750 1.609375l-1.125000 0.000000q-0.250000 0.000000 -0.625000 -0.312500q-0.359375 -0.312500 -0.359375 -0.609375l0.000000 -33.406250q0.000000 -0.234375 0.312500 -0.500000q0.328125 -0.281250 0.671875 -0.281250l0.296875 0.000000q6.734375 3.234375 14.296875 3.234375q7.421875 0.000000 14.312500 -3.234375l0.296875 0.000000q0.343750 0.000000 0.625000 0.250000q0.296875 0.250000 0.296875 0.531250l0.000000 0.937500q0.000000 0.484375 -0.187500 0.484375q-3.421875 4.546875 -8.578125 7.093750q-5.156250 2.531250 -10.671875 2.531250q-4.000000 0.000000 -8.203125 -1.125000l0.000000 18.890625q3.328125 -2.687500 5.937500 -3.828125q2.609375 -1.156250 6.671875 -1.156250q5.515625 0.000000 9.875000 3.187500q4.375000 3.171875 6.718750 8.281250q2.343750 5.093750 2.343750 10.406250q0.000000 6.015625 -2.953125 11.140625q-2.953125 5.125000 -8.031250 8.156250q-5.078125 3.031250 -11.031250 3.031250q-4.937500 0.000000 -9.062500 -2.531250q-4.125000 -2.546875 -6.500000 -6.843750q-2.359375 -4.296875 -2.359375 -9.140625q0.000000 -2.250000 1.453125 -3.656250q1.468750 -1.421875 3.671875 -1.421875q2.203125 0.000000 3.687500 1.453125q1.484375 1.437500 1.484375 3.625000q0.000000 2.156250 -1.484375 3.640625q-1.484375 1.484375 -3.687500 1.484375q-0.343750 0.000000 -0.781250 -0.062500q-0.437500 -0.078125 -0.640625 -0.125000"/>
</defs>
<g id="mathtext4">
<g style="fill: #000000" transform="translate(456.333750,190.379063)">
<use xlink:href="#c_de7dfbad6a159ea4bf302c80754c00c9" transform="translate(0.000000,-3.937500)scale(0.144000)"/>
<use xlink:href="#c_7bbc93c01755cdeb977d08bdfb9ce616" transform="translate(8.815656,-3.937500)scale(0.144000)"/>
<use xlink:href="#c_f47f2818876b2f1a61c47f270461e46e" transform="translate(20.904947,-3.937500)scale(0.144000)"/>
<use xlink:href="#c_8b48a7401ae680eb5f4c605f13a7b112" transform="translate(28.100259,-3.937500)scale(0.144000)"/>
<use xlink:href="#c_7d09e94cce4bdf71f2297f5bbc354b76" transform="translate(32.205176,-3.937500)scale(0.144000)"/>
</g>
</g>
</g>
<g id="line2d124">
<path style="fill: none; stroke: #ff0000; stroke-width: 1.000000; stroke-linejoin: round; stroke-linecap: square;  opacity: 1.000000" d="M420.333750 203.539062L440.493750 203.539062"/>
</g>
<g id="line2d125">
</g>
<g id="text18">
<defs>
<path id="c_1a459ac34855d27ec37ccb0e66298d36" d="M9.281250 -0.000000l0.000000 -3.515625q12.500000 0.000000 12.500000 -3.171875l0.000000 -52.500000q-5.171875 2.500000 -13.093750 2.500000l0.000000 -3.515625q12.265625 0.000000 18.515625 -6.406250l1.406250 0.000000q0.343750 0.000000 0.656250 0.281250q0.328125 0.265625 0.328125 0.609375l0.000000 59.031250q0.000000 3.171875 12.500000 3.171875l0.000000 3.515625z"/>
</defs>
<g id="mathtext5">
<g style="fill: #000000" transform="translate(456.333750,211.579062)">
<use xlink:href="#c_de7dfbad6a159ea4bf302c80754c00c9" transform="translate(0.000000,-3.937500)scale(0.144000)"/>
<use xlink:href="#c_7bbc93c01755cdeb977d08bdfb9ce616" transform="translate(8.815656,-3.937500)scale(0.144000)"/>
<use xlink:href="#c_1a459ac34855d27ec37ccb0e66298d36" transform="translate(20.904947,-3.937500)scale(0.144000)"/>
<use xlink:href="#c_8b48a7401ae680eb5f4c605f13a7b112" transform="translate(28.100259,-3.937500)scale(0.144000)"/>
<use xlink:href="#c_f47f2818876b2f1a61c47f270461e46e" transform="translate(32.205176,-3.937500)scale(0.144000)"/>
</g>
</g>
</g>
<g id="line2d126">
<path style="fill: none; stroke: #00bfbf; stroke-width: 1.000000; stroke-linejoin: round; stroke-linecap: square;  opacity: 1.000000" d="M420.333750 224.739063L440.493750 224.739063"/>
</g>
<g id="line2d127">
</g>
<g id="text19">
<g id="mathtext6">
<g style="fill: #000000" transform="translate(456.333750,232.779063)">
<use xlink:href="#c_de7dfbad6a159ea4bf302c80754c00c9" transform="translate(0.000000,-3.937500)scale(0.144000)"/>
<use xlink:href="#c_7bbc93c01755cdeb977d08bdfb9ce616" transform="translate(8.815656,-3.937500)scale(0.144000)"/>
<use xlink:href="#c_1a459ac34855d27ec37ccb0e66298d36" transform="translate(20.904947,-3.937500)scale(0.144000)"/>
<use xlink:href="#c_8b48a7401ae680eb5f4c605f13a7b112" transform="translate(28.100259,-3.937500)scale(0.144000)"/>
<use xlink:href="#c_7d09e94cce4bdf71f2297f5bbc354b76" transform="translate(32.205176,-3.937500)scale(0.144000)"/>
</g>
</g>
</g>
</g>
</g>
</g>
</svg>